<mxfile host="Electron" modified="2024-07-29T08:22:57.267Z" agent="Mozilla/5.0 (Windows NT 10.0; Win64; x64) AppleWebKit/537.36 (KHTML, like Gecko) draw.io/24.1.0 Chrome/120.0.6099.109 Electron/28.1.0 Safari/537.36" etag="w8lIYlGj8c-oejydFV4_" version="24.1.0" type="device">
  <diagram name="Seite-1" id="_-d09AO4MwsSUTSPWl0X">
    <mxGraphModel dx="1593" dy="929" grid="1" gridSize="10" guides="1" tooltips="1" connect="1" arrows="1" fold="1" page="1" pageScale="1" pageWidth="1169" pageHeight="827" math="0" shadow="0">
      <root>
        <mxCell id="0" />
        <mxCell id="1" parent="0" />
        <mxCell id="V1Jo2Pw9Cp7TwyNzIhlL-1" value="" style="rounded=0;whiteSpace=wrap;html=1;dashed=1;fillColor=none;strokeColor=#b85450;strokeWidth=3;" vertex="1" parent="1">
          <mxGeometry x="120" y="140" width="400" height="380" as="geometry" />
        </mxCell>
        <mxCell id="V1Jo2Pw9Cp7TwyNzIhlL-2" value="" style="rounded=0;whiteSpace=wrap;html=1;dashed=1;fillColor=none;strokeColor=#82b366;strokeWidth=3;" vertex="1" parent="1">
          <mxGeometry x="560" y="140" width="400" height="380" as="geometry" />
        </mxCell>
        <mxCell id="V1Jo2Pw9Cp7TwyNzIhlL-3" value="Marek Georg" style="text;html=1;align=center;verticalAlign=middle;whiteSpace=wrap;rounded=0;fillColor=none;strokeColor=#b85450;" vertex="1" parent="1">
          <mxGeometry x="120" y="490" width="90" height="30" as="geometry" />
        </mxCell>
        <mxCell id="V1Jo2Pw9Cp7TwyNzIhlL-5" value="Neuhauser Lukas" style="text;html=1;align=center;verticalAlign=middle;whiteSpace=wrap;rounded=0;fillColor=none;strokeColor=#82b366;" vertex="1" parent="1">
          <mxGeometry x="850" y="490" width="110" height="30" as="geometry" />
        </mxCell>
        <mxCell id="V1Jo2Pw9Cp7TwyNzIhlL-7" value="APP design&lt;div style=&quot;font-size: 38px;&quot;&gt;and&lt;/div&gt;&lt;div style=&quot;font-size: 38px;&quot;&gt;uC&lt;/div&gt;" style="text;html=1;align=center;verticalAlign=middle;whiteSpace=wrap;rounded=0;fontSize=38;" vertex="1" parent="1">
          <mxGeometry x="640" y="235" width="240" height="190" as="geometry" />
        </mxCell>
        <mxCell id="V1Jo2Pw9Cp7TwyNzIhlL-8" value="Hardware (RX / TX chain)" style="text;html=1;align=center;verticalAlign=middle;whiteSpace=wrap;rounded=0;fontSize=38;" vertex="1" parent="1">
          <mxGeometry x="200" y="235" width="240" height="190" as="geometry" />
        </mxCell>
      </root>
    </mxGraphModel>
  </diagram>
</mxfile>
